<?xml version="1.0" encoding="utf-8"?>
<!-- Generator: Adobe Illustrator 15.0.0, SVG Export Plug-In . SVG Version: 6.00 Build 0)  -->
<!DOCTYPE svg PUBLIC "-//W3C//DTD SVG 1.1//EN" "http://www.w3.org/Graphics/SVG/1.1/DTD/svg11.dtd">
<svg version="1.1" id="Ebene_1" xmlns="http://www.w3.org/2000/svg" xmlns:xlink="http://www.w3.org/1999/xlink" x="0px" y="0px"
	 width="250.15px" height="231.649px" viewBox="0 0 250.15 231.649" enable-background="new 0 0 250.15 231.649"
	 xml:space="preserve">
<g>
	<path d="M246.832,204.353c3.043,5.396,2.904,12.037-0.277,17.429c-3.182,5.396-8.992,8.72-15.219,8.72H18.829
		c-6.226,0-12.036-3.323-15.218-8.72c-3.183-5.392-3.32-12.032-0.277-17.429l106.252-194.8c3.043-5.671,8.993-9.269,15.495-9.269
		s12.452,3.598,15.497,9.269L246.832,204.353z M145.005,75.269c0-0.83-0.414-1.937-1.383-2.628
		c-0.829-0.692-2.076-1.521-3.323-1.521h-30.437c-1.246,0-2.491,0.83-3.32,1.521c-0.969,0.692-1.384,2.076-1.384,2.905l2.352,63.226
		c0,1.8,2.075,3.186,4.704,3.186h25.595c2.491,0,4.57-1.386,4.708-3.186L145.005,75.269z M142.793,164.229
		c0-2.488-1.938-4.562-4.431-4.562h-26.563c-2.491,0-4.427,2.074-4.427,4.562v26.288c0,2.488,1.936,4.566,4.427,4.566h26.563
		c2.493,0,4.431-2.078,4.431-4.566V164.229z"/>
</g>
</svg>
