<?xml version="1.0" encoding="utf-8"?>
<!-- Generator: Adobe Illustrator 15.0.0, SVG Export Plug-In . SVG Version: 6.00 Build 0)  -->
<!DOCTYPE svg PUBLIC "-//W3C//DTD SVG 1.1//EN" "http://www.w3.org/Graphics/SVG/1.1/DTD/svg11.dtd">
<svg version="1.1" id="Ebene_1" xmlns="http://www.w3.org/2000/svg" xmlns:xlink="http://www.w3.org/1999/xlink" x="0px" y="0px"
	 width="256.149px" height="277.649px" viewBox="0 0 256.149 277.649" enable-background="new 0 0 256.149 277.649"
	 xml:space="preserve">
<path d="M246.779,154.973c0.991,3.632,1.486,7.596,1.486,11.396c0,8.256-2.147,16.515-6.275,23.782
	c0.33,2.312,0.495,4.79,0.495,7.102c0,10.569-3.469,21.14-9.909,29.398c0.33,31.212-20.975,49.545-51.528,49.545h-5.945h-15.36
	c-23.453,0-45.254-6.938-67.054-14.533c-4.79-1.652-18.168-6.606-22.792-6.606H22.331c-11.726,0-21.14-9.413-21.14-21.14v-105.7
	c0-11.726,9.414-21.14,21.14-21.14h45.253c6.44-4.295,17.671-19.158,22.625-25.599c5.616-7.267,11.396-14.37,17.671-21.14
	c9.911-10.57,4.625-36.665,21.14-52.85c3.964-3.799,9.249-6.111,14.867-6.111c17.176,0,33.691,6.111,41.784,22.13
	c5.12,10.075,5.78,19.654,5.78,30.719c0,11.56-2.974,21.471-7.927,31.71h29.066c22.792,0,42.28,19.323,42.28,42.114
	C254.872,137.631,252.063,147.045,246.779,154.973z M32.901,212.776c-5.78,0-10.57,4.79-10.57,10.57s4.79,10.57,10.57,10.57
	c5.78,0,10.57-4.79,10.57-10.57S38.681,212.776,32.901,212.776z M212.591,107.077h-58.134c0-19.323,15.854-33.362,15.854-52.85
	c0-19.323-3.798-31.71-26.425-31.71c-10.572,10.735-5.122,36.004-21.142,52.85c-4.625,4.79-8.588,9.91-12.717,15.029
	c-7.432,9.58-27.085,37.821-40.132,37.821h-5.285v105.7h5.285c9.249,0,24.443,5.946,33.362,9.084
	c18.167,6.275,36.995,12.056,56.484,12.056h19.984c18.663,0,31.71-7.433,31.71-27.582c0-3.138-0.331-6.275-0.826-9.249
	c6.936-3.797,10.735-13.212,10.735-20.809c0-3.964-0.991-7.928-2.974-11.396c5.616-5.285,8.754-11.892,8.754-19.652
	c0-5.286-2.312-13.048-5.78-17.012c7.762-0.166,12.387-15.029,12.387-21.14C233.732,116.986,223.657,107.077,212.591,107.077z"/>
<g>
	<path d="M-34.401,180.756c1.447,2.566,1.382,5.725-0.132,8.289c-1.513,2.566-4.276,4.146-7.237,4.146h-101.062
		c-2.961,0-5.724-1.58-7.237-4.146c-1.514-2.564-1.579-5.723-0.132-8.289l50.531-92.641c1.447-2.697,4.277-4.408,7.369-4.408
		s5.922,1.711,7.369,4.408L-34.401,180.756z M-82.827,119.368c0-0.395-0.197-0.921-0.658-1.25c-0.395-0.329-0.987-0.724-1.579-0.724
		h-14.475c-0.592,0-1.185,0.395-1.579,0.724c-0.461,0.329-0.658,0.987-0.658,1.382l1.119,30.069c0,0.855,0.987,1.514,2.237,1.514
		h12.172c1.184,0,2.171-0.658,2.237-1.514L-82.827,119.368z M-83.879,161.674c0-1.184-0.921-2.17-2.105-2.17h-12.633
		c-1.185,0-2.105,0.986-2.105,2.17v12.502c0,1.184,0.921,2.172,2.105,2.172h12.633c1.185,0,2.105-0.988,2.105-2.172V161.674z"/>
</g>
</svg>
