<?xml version="1.0" encoding="utf-8"?>
<!-- Generator: Adobe Illustrator 15.0.0, SVG Export Plug-In . SVG Version: 6.00 Build 0)  -->
<!DOCTYPE svg PUBLIC "-//W3C//DTD SVG 1.1//EN" "http://www.w3.org/Graphics/SVG/1.1/DTD/svg11.dtd">
<svg version="1.1" id="Ebene_1" xmlns="http://www.w3.org/2000/svg" xmlns:xlink="http://www.w3.org/1999/xlink" x="0px" y="0px"
	 width="283.465px" height="283.464px" viewBox="0 0 283.465 283.464" enable-background="new 0 0 283.465 283.464"
	 xml:space="preserve">
<path fill="#FFFFFF" d="M141.732,284.881c-78.933,0-143.149-64.216-143.149-143.148c0-78.933,64.217-143.15,143.149-143.15
	c38.237,0,74.185,14.89,101.223,41.928c27.037,27.038,41.927,62.986,41.926,101.223
	C284.881,220.666,220.665,284.881,141.732,284.881z M141.732,7.118c-35.957,0-69.761,14.002-95.187,39.428
	C21.12,71.97,7.118,105.774,7.118,141.733c0,35.957,14.002,69.762,39.427,95.187c25.426,25.426,59.23,39.429,95.187,39.429
	s69.761-14.003,95.187-39.429c25.427-25.425,39.43-59.229,39.43-95.187c0-35.956-14.003-69.761-39.43-95.188
	C211.494,21.12,177.689,7.118,141.732,7.118z"/>
<path fill="#FFFFFF" d="M141.732,232.825c-50.229,0-91.092-40.863-91.092-91.092c0-50.229,40.864-91.093,91.092-91.093
	c50.23,0,91.094,40.864,91.094,91.093C232.826,191.961,191.962,232.825,141.732,232.825z M141.732,59.174
	c-45.522,0-82.558,37.036-82.559,82.559c0,45.522,37.036,82.559,82.559,82.559c45.524,0,82.56-37.036,82.56-82.559
	C224.292,96.21,187.256,59.174,141.732,59.174z"/>
<circle fill="#FFFFFF" cx="141.733" cy="141.733" r="37.999"/>
</svg>
